<svg width="368" height="96" viewBox="0 0 368 96" fill="none" xmlns="http://www.w3.org/2000/svg">
<path d="M180.194 38.29V50.24C180.194 52.09 179.669 53.515 178.619 54.515C177.586 55.515 176.186 56.015 174.419 56.015C172.569 56.015 171.086 55.49 169.969 54.44C168.853 53.39 168.294 51.8983 168.294 49.965H172.544C172.544 50.6983 172.694 51.2567 172.994 51.64C173.294 52.0067 173.728 52.19 174.294 52.19C174.811 52.19 175.211 52.0233 175.494 51.69C175.778 51.3567 175.919 50.8733 175.919 50.24V38.29H180.194ZM192.498 56.04C191.131 56.04 189.898 55.7483 188.798 55.165C187.714 54.5817 186.856 53.7483 186.223 52.665C185.606 51.5817 185.298 50.315 185.298 48.865C185.298 47.4317 185.614 46.1733 186.248 45.09C186.881 43.99 187.748 43.1483 188.848 42.565C189.948 41.9817 191.181 41.69 192.548 41.69C193.914 41.69 195.148 41.9817 196.248 42.565C197.348 43.1483 198.214 43.99 198.848 45.09C199.481 46.1733 199.798 47.4317 199.798 48.865C199.798 50.2983 199.473 51.565 198.823 52.665C198.189 53.7483 197.314 54.5817 196.198 55.165C195.098 55.7483 193.864 56.04 192.498 56.04ZM192.498 52.34C193.314 52.34 194.006 52.04 194.573 51.44C195.156 50.84 195.448 49.9817 195.448 48.865C195.448 47.7483 195.164 46.89 194.598 46.29C194.048 45.69 193.364 45.39 192.548 45.39C191.714 45.39 191.023 45.69 190.473 46.29C189.923 46.8733 189.648 47.7317 189.648 48.865C189.648 49.9817 189.914 50.84 190.448 51.44C190.998 52.04 191.681 52.34 192.498 52.34ZM208.841 43.865C209.241 43.215 209.816 42.69 210.566 42.29C211.316 41.89 212.174 41.69 213.141 41.69C214.291 41.69 215.332 41.9817 216.266 42.565C217.199 43.1483 217.932 43.9817 218.466 45.065C219.016 46.1483 219.291 47.4067 219.291 48.84C219.291 50.2733 219.016 51.54 218.466 52.64C217.932 53.7233 217.199 54.565 216.266 55.165C215.332 55.7483 214.291 56.04 213.141 56.04C212.157 56.04 211.299 55.8483 210.566 55.465C209.832 55.065 209.257 54.54 208.841 53.89V55.84H204.566V37.34H208.841V43.865ZM214.941 48.84C214.941 47.7733 214.641 46.94 214.041 46.34C213.457 45.7233 212.732 45.415 211.866 45.415C211.016 45.415 210.291 45.7233 209.691 46.34C209.107 46.9567 208.816 47.7983 208.816 48.865C208.816 49.9317 209.107 50.7733 209.691 51.39C210.291 52.0067 211.016 52.315 211.866 52.315C212.716 52.315 213.441 52.0067 214.041 51.39C214.641 50.7567 214.941 49.9067 214.941 48.84ZM236.658 38.29V41.715H232.008V55.84H227.733V41.715H223.083V38.29H236.658ZM245.579 44.215C246.079 43.4483 246.704 42.8483 247.454 42.415C248.204 41.965 249.037 41.74 249.954 41.74V46.265H248.779C247.712 46.265 246.912 46.4983 246.379 46.965C245.845 47.415 245.579 48.215 245.579 49.365V55.84H241.304V41.89H245.579V44.215ZM253.647 48.84C253.647 47.4067 253.914 46.1483 254.447 45.065C254.997 43.9817 255.739 43.1483 256.672 42.565C257.606 41.9817 258.647 41.69 259.797 41.69C260.781 41.69 261.639 41.89 262.372 42.29C263.122 42.69 263.697 43.215 264.097 43.865V41.89H268.372V55.84H264.097V53.865C263.681 54.515 263.097 55.04 262.347 55.44C261.614 55.84 260.756 56.04 259.772 56.04C258.639 56.04 257.606 55.7483 256.672 55.165C255.739 54.565 254.997 53.7233 254.447 52.64C253.914 51.54 253.647 50.2733 253.647 48.84ZM264.097 48.865C264.097 47.7983 263.797 46.9567 263.197 46.34C262.614 45.7233 261.897 45.415 261.047 45.415C260.197 45.415 259.472 45.7233 258.872 46.34C258.289 46.94 257.997 47.7733 257.997 48.84C257.997 49.9067 258.289 50.7567 258.872 51.39C259.472 52.0067 260.197 52.315 261.047 52.315C261.897 52.315 262.614 52.0067 263.197 51.39C263.797 50.7733 264.097 49.9317 264.097 48.865ZM273.115 48.865C273.115 47.415 273.407 46.1483 273.99 45.065C274.59 43.9817 275.415 43.1483 276.465 42.565C277.532 41.9817 278.748 41.69 280.115 41.69C281.865 41.69 283.323 42.1483 284.49 43.065C285.673 43.9817 286.448 45.2733 286.815 46.94H282.265C281.882 45.8733 281.14 45.34 280.04 45.34C279.257 45.34 278.632 45.6483 278.165 46.265C277.698 46.865 277.465 47.7317 277.465 48.865C277.465 49.9983 277.698 50.8733 278.165 51.49C278.632 52.09 279.257 52.39 280.04 52.39C281.14 52.39 281.882 51.8567 282.265 50.79H286.815C286.448 52.4233 285.673 53.7067 284.49 54.64C283.307 55.5733 281.848 56.04 280.115 56.04C278.748 56.04 277.532 55.7483 276.465 55.165C275.415 54.5817 274.59 53.7483 273.99 52.665C273.407 51.5817 273.115 50.315 273.115 48.865ZM300.127 55.84L295.877 49.99V55.84H291.602V37.34H295.877V47.565L300.102 41.89H305.377L299.577 48.89L305.427 55.84H300.127ZM311.706 40.44C310.956 40.44 310.339 40.2233 309.856 39.79C309.389 39.34 309.156 38.79 309.156 38.14C309.156 37.4733 309.389 36.9233 309.856 36.49C310.339 36.04 310.956 35.815 311.706 35.815C312.439 35.815 313.039 36.04 313.506 36.49C313.989 36.9233 314.231 37.4733 314.231 38.14C314.231 38.79 313.989 39.34 313.506 39.79C313.039 40.2233 312.439 40.44 311.706 40.44ZM313.831 41.89V55.84H309.556V41.89H313.831ZM327.929 41.74C329.562 41.74 330.862 42.2733 331.829 43.34C332.812 44.39 333.304 45.84 333.304 47.69V55.84H329.054V48.265C329.054 47.3317 328.812 46.6067 328.329 46.09C327.845 45.5733 327.195 45.315 326.379 45.315C325.562 45.315 324.912 45.5733 324.429 46.09C323.945 46.6067 323.704 47.3317 323.704 48.265V55.84H319.429V41.89H323.704V43.74C324.137 43.1233 324.72 42.64 325.454 42.29C326.187 41.9233 327.012 41.74 327.929 41.74ZM344.075 41.69C345.058 41.69 345.916 41.89 346.65 42.29C347.4 42.69 347.975 43.215 348.375 43.865V41.89H352.65V55.815C352.65 57.0983 352.391 58.2567 351.875 59.29C351.375 60.34 350.6 61.1733 349.55 61.79C348.516 62.4067 347.225 62.715 345.675 62.715C343.608 62.715 341.933 62.2233 340.65 61.24C339.366 60.2733 338.633 58.9567 338.45 57.29H342.675C342.808 57.8233 343.125 58.24 343.625 58.54C344.125 58.8567 344.741 59.015 345.475 59.015C346.358 59.015 347.058 58.7567 347.575 58.24C348.108 57.74 348.375 56.9317 348.375 55.815V53.84C347.958 54.49 347.383 55.0233 346.65 55.44C345.916 55.84 345.058 56.04 344.075 56.04C342.925 56.04 341.883 55.7483 340.95 55.165C340.016 54.565 339.275 53.7233 338.725 52.64C338.191 51.54 337.925 50.2733 337.925 48.84C337.925 47.4067 338.191 46.1483 338.725 45.065C339.275 43.9817 340.016 43.1483 340.95 42.565C341.883 41.9817 342.925 41.69 344.075 41.69ZM348.375 48.865C348.375 47.7983 348.075 46.9567 347.475 46.34C346.891 45.7233 346.175 45.415 345.325 45.415C344.475 45.415 343.75 45.7233 343.15 46.34C342.566 46.94 342.275 47.7733 342.275 48.84C342.275 49.9067 342.566 50.7567 343.15 51.39C343.75 52.0067 344.475 52.315 345.325 52.315C346.175 52.315 346.891 52.0067 347.475 51.39C348.075 50.7733 348.375 49.9317 348.375 48.865Z" fill="#EB2525"/>
<rect x="32.7111" y="22.08" width="102.222" height="48" rx="10" fill="#EB2525"/>
<path d="M73.3318 51.3095V31.6025H79.1717V51.3095C79.1717 53.2106 78.755 54.8447 77.9217 56.2119C77.0884 57.566 75.949 58.6077 74.5037 59.3369C73.0714 60.066 71.4568 60.4306 69.66 60.4306C67.798 60.4306 66.1509 60.1181 64.7186 59.4931C63.2863 58.8681 62.16 57.9111 61.3397 56.622C60.5193 55.3199 60.1092 53.6728 60.1092 51.6806H65.9881C65.9881 52.7223 66.1313 53.5491 66.4178 54.1611C66.7173 54.7731 67.1404 55.2093 67.6873 55.4697C68.2342 55.7301 68.8917 55.8603 69.66 55.8603C70.4022 55.8603 71.0467 55.6845 71.5936 55.333C72.1404 54.9814 72.5636 54.4671 72.8631 53.79C73.1756 53.1129 73.3318 52.2861 73.3318 51.3095Z" fill="white"/>
<path d="M107.254 38.5625V67H101.414V38.5625H107.254ZM116.004 38.5625V43.1523H92.8008V38.5625H116.004Z" fill="white"/>
</svg>
